<?xml version="1.0" encoding="utf-8"?>
<svg version="1.1" xmlns:xlink="http://www.w3.org/1999/xlink" width="27px" height="27px" xmlns="http://www.w3.org/2000/svg">
  <g transform="matrix(1 0 0 1 -889 -79 )">
    <path d="M 16.55859375 16.55859375  C 17.981069711538463 15.136117788461537  18.692307692307693 13.424278846153845  18.692307692307693 11.423076923076925  C 18.692307692307693 9.421874999999998  17.981069711538463 7.710036057692307  16.55859375 6.287560096153846  C 15.13611778846154 4.865084134615382  13.424278846153847 4.153846153846154  11.423076923076923 4.153846153846154  C 9.421875000000002 4.153846153846154  7.710036057692309 4.865084134615382  6.287560096153846 6.287560096153846  C 4.865084134615385 7.710036057692307  4.153846153846154 9.421874999999998  4.153846153846154 11.423076923076925  C 4.153846153846154 13.424278846153845  4.865084134615385 15.136117788461537  6.287560096153846 16.55859375  C 7.710036057692309 17.981069711538456  9.421875000000002 18.692307692307693  11.423076923076923 18.692307692307693  C 13.424278846153847 18.692307692307693  15.13611778846154 17.981069711538456  16.55859375 16.55859375  Z M 26.399639423076923 23.462740384615383  C 26.79987980769231 23.86298076923077  27 24.349759615384617  27 24.923076923076923  C 27 25.485576923076927  26.794471153846157 25.97235576923077  26.383413461538463 26.383413461538463  C 25.97235576923077 26.794471153846153  25.485576923076927 27  24.923076923076923 27  C 24.338942307692307 27  23.852163461538463 26.794471153846153  23.462740384615383 26.383413461538463  L 17.897235576923077 20.834134615384617  C 15.960937500000002 22.17548076923077  13.802884615384617 22.846153846153847  11.423076923076923 22.846153846153847  C 9.876201923076923 22.846153846153847  8.396935096153847 22.545973557692307  6.985276442307692 21.945612980769234  C 5.573617788461538 21.345252403846153  4.356670673076923 20.533954326923077  3.3344350961538463 19.51171875  C 2.312199519230769 18.489483173076923  1.5009014423076925 17.272536057692307  0.9005408653846154 15.860877403846153  C 0.3001802884615385 14.44921875  0 12.96995192307692  0 11.423076923076925  C 0 9.87620192307692  0.3001802884615385 8.396935096153847  0.9005408653846154 6.985276442307692  C 1.5009014423076925 5.573617788461537  2.312199519230769 4.356670673076924  3.3344350961538463 3.334435096153846  C 4.356670673076923 2.3121995192307705  5.573617788461538 1.5009014423076918  6.985276442307692 0.9005408653846163  C 8.396935096153847 0.30018028846153777  9.876201923076923 0  11.423076923076923 0  C 12.969951923076923 0  14.44921875 0.30018028846153777  15.860877403846153 0.9005408653846163  C 17.272536057692307 1.5009014423076918  18.489483173076923 2.3121995192307705  19.51171875 3.334435096153846  C 20.533954326923077 4.356670673076924  21.345252403846153 5.573617788461537  21.94561298076923 6.985276442307692  C 22.545973557692307 8.396935096153847  22.846153846153847 9.87620192307692  22.846153846153847 11.423076923076925  C 22.846153846153847 13.802884615384615  22.17548076923077 15.960937499999998  20.834134615384617 17.897235576923077  L 26.399639423076923 23.462740384615383  Z " fill-rule="nonzero" fill="#000000" stroke="none" transform="matrix(1 0 0 1 889 79 )" />
  </g>
</svg>