<?xml version="1.0" encoding="utf-8"?>
<svg version="1.1" xmlns:xlink="http://www.w3.org/1999/xlink" width="16px" height="9px" xmlns="http://www.w3.org/2000/svg">
  <g transform="matrix(1 0 0 1 -1125 -7710 )">
    <path d="M 15.916666666666666 3.1014304291287496  C 15.97222222222223 3.171651495448605  16 3.2613784135240897  16 3.3706111833550256  C 16 3.3706111833550256  16 5.508452535760714  16 5.61768530559165  C 16 5.726918075422675  15.97222222222223 5.816644993498071  15.916666666666666 5.886866059818015  C 15.861111111111114 5.9570871261377825  15.790123456790123 5.992197659297844  15.7037037037037 5.992197659297844  L 13.538461538461538 5.992197659297844  L 10.57142857142857 5.992197659297844  L 4.14814814814815 5.992197659297844  L 4.14814814814815 8.61378413524066  C 4.14814814814815 8.777633289987019  4.089506172839504 8.890767230169065  3.9722222222222183 8.953185955786793  C 3.8549382716049387 9.015604681404433  3.746913580246918 8.996098829648892  3.6481481481481493 8.894668400520171  L 0.09259259259259195 4.798439531859497  C 0.03086419753086398 4.720416124837516  0 4.630689206762031  0 4.52925877763331  C 0 4.420026007802374  0.03086419753086398 4.326397919375782  0.09259259259259195 4.24837451235371  L 3.6481481481481493 0.10533159947982788  C 3.746913580246918 -0.003901170351108031  3.8549382716049387 -0.027308192457756217  3.9722222222222183 0.03511053315988331  C 4.089506172839504 0.10533159947982788  4.14814814814815 0.2184655396618718  4.14814814814815 0.3745123537061041  L 4.14814814814815 2.9960988296488327  L 15.7037037037037 3.3706111833550256  L 12.621848739495794 2.9960988296488327  L 15.7037037037037 2.9960988296488327  C 15.790123456790123 2.9960988296488327  15.861111111111114 3.031209362808894  15.916666666666666 3.1014304291287496  Z " fill-rule="nonzero" fill="#7f7f7f" stroke="none" transform="matrix(1 0 0 1 1125 7710 )" />
  </g>
</svg>