<?xml version="1.0" encoding="utf-8"?>
<svg version="1.1" xmlns:xlink="http://www.w3.org/1999/xlink" width="26px" height="33px" xmlns="http://www.w3.org/2000/svg">
  <g transform="matrix(1 0 0 1 -24 -10548 )">
    <path d="M 22 4.714285714285716  L 24 4.714285714285716  C 24.541666666666668 4.714285714285716  25.010416666666668 4.947544642857139  25.40625 5.4140625  C 25.802083333333336 5.880580357142858  26 6.4330357142857135  26 7.071428571428572  L 26 30.642857142857142  C 26 31.281250000000004  25.802083333333336 31.833705357142858  25.40625 32.300223214285715  C 25.010416666666668 32.76674107142857  24.541666666666668 33  24 33  L 2 33  C 1.4583333333333335 33  0.9895833333333335 32.76674107142857  0.59375 32.300223214285715  C 0.19791666666666666 31.833705357142858  0 31.281250000000004  0 30.642857142857142  L 0 7.071428571428572  C 0 6.4330357142857135  0.19791666666666666 5.880580357142858  0.59375 5.4140625  C 0.9895833333333335 4.947544642857139  1.4583333333333335 4.714285714285716  2 4.714285714285716  L 4 4.714285714285716  L 4 2.946428571428572  C 4 2.1361607142857157  4.244791666666667 1.4425223214285694  4.734375 0.8655133928571439  C 5.223958333333334 0.28850446428571463  5.8125 0  6.5 0  L 7.499999999999999 0  C 8.1875 0  8.776041666666668 0.28850446428571463  9.265625 0.8655133928571439  C 9.755208333333334 1.4425223214285694  10 2.1361607142857157  10 2.946428571428572  L 10 4.714285714285716  L 16 4.714285714285716  L 16 2.946428571428572  C 16 2.1361607142857157  16.244791666666668 1.4425223214285694  16.734375 0.8655133928571439  C 17.223958333333336 0.28850446428571463  17.8125 0  18.5 0  L 19.5 0  C 20.1875 0  20.776041666666668 0.28850446428571463  21.265625 0.8655133928571439  C 21.755208333333336 1.4425223214285694  22 2.1361607142857157  22 2.946428571428572  L 22 4.714285714285716  Z M 18.140625 2.5228794642857157  C 18.046875 2.6333705357142843  18 2.774553571428567  18 2.946428571428572  L 18 8.25  C 18 8.421874999999998  18.046875 8.563058035714285  18.140625 8.673549107142856  C 18.234375 8.784040178571429  18.354166666666668 8.839285714285715  18.5 8.839285714285715  L 19.5 8.839285714285715  C 19.645833333333336 8.839285714285715  19.765625 8.784040178571429  19.859375 8.673549107142856  C 19.953125 8.563058035714285  20 8.421874999999998  20 8.25  L 20 2.946428571428572  C 20 2.774553571428567  19.953125 2.6333705357142843  19.859375 2.5228794642857157  C 19.765625 2.412388392857144  19.645833333333336 2.357142857142856  19.5 2.357142857142856  L 18.5 2.357142857142856  C 18.354166666666668 2.357142857142856  18.234375 2.412388392857144  18.140625 2.5228794642857157  Z M 6.140625 2.5228794642857157  C 6.046875 2.6333705357142843  6 2.774553571428567  6 2.946428571428572  L 6 8.25  C 6 8.421874999999998  6.046875 8.563058035714285  6.140625 8.673549107142856  C 6.234375000000001 8.784040178571429  6.354166666666668 8.839285714285715  6.5 8.839285714285715  L 7.499999999999999 8.839285714285715  C 7.645833333333334 8.839285714285715  7.765625000000001 8.784040178571429  7.859375 8.673549107142856  C 7.953125 8.563058035714285  8 8.421874999999998  8 8.25  L 8 2.946428571428572  C 8 2.774553571428567  7.953125 2.6333705357142843  7.859375 2.5228794642857157  C 7.765625000000001 2.412388392857144  7.645833333333334 2.357142857142856  7.499999999999999 2.357142857142856  L 6.5 2.357142857142856  C 6.354166666666668 2.357142857142856  6.234375000000001 2.412388392857144  6.140625 2.5228794642857157  Z M 2 30  L 24 30  L 24 12  L 2 12  L 2 30  Z M 14 15.910714285714285  L 14 20.03571428571429  L 17.5 20.03571428571429  C 17.645833333333336 20.03571428571429  17.765625 20.090959821428573  17.859375 20.201450892857142  C 17.953125 20.31194196428571  18 20.453124999999996  18 20.625  L 18 21.803571428571427  C 18 21.97544642857143  17.953125 22.11662946428571  17.859375 22.22712053571429  C 17.765625 22.337611607142858  17.645833333333336 22.392857142857142  17.5 22.392857142857142  L 14 22.392857142857142  L 14 26.517857142857142  C 14 26.689732142857142  13.953125 26.830915178571427  13.859375 26.94140625  C 13.765625 27.051897321428573  13.645833333333334 27.107142857142858  13.500000000000002 27.107142857142858  L 12.5 27.107142857142858  C 12.354166666666668 27.107142857142858  12.234375000000002 27.051897321428573  12.140625 26.94140625  C 12.046875 26.830915178571427  12 26.689732142857142  12 26.517857142857142  L 12 22.392857142857142  L 8.5 22.392857142857142  C 8.354166666666668 22.392857142857142  8.234375 22.337611607142858  8.140625 22.22712053571429  C 8.046875 22.11662946428571  8 21.97544642857143  8 21.803571428571427  L 8 20.625  C 8 20.453124999999996  8.046875 20.31194196428571  8.140625 20.201450892857142  C 8.234375 20.090959821428573  8.354166666666668 20.03571428571429  8.5 20.03571428571429  L 12 20.03571428571429  L 12 15.910714285714285  C 12 15.738839285714286  12.046875 15.59765625  12.140625 15.487165178571429  C 12.234375000000002 15.376674107142856  12.354166666666668 15.321428571428571  12.5 15.321428571428571  L 13.500000000000002 15.321428571428571  C 13.645833333333334 15.321428571428571  13.765625 15.376674107142856  13.859375 15.487165178571429  C 13.953125 15.59765625  14 15.738839285714286  14 15.910714285714285  Z " fill-rule="nonzero" fill="#ffffff" stroke="none" transform="matrix(1 0 0 1 24 10548 )" />
  </g>
</svg>