<?xml version="1.0" encoding="utf-8"?>
<svg version="1.1" xmlns:xlink="http://www.w3.org/1999/xlink" width="25px" height="26px" xmlns="http://www.w3.org/2000/svg">
  <g transform="matrix(1 0 0 1 -944 -79 )">
    <path d="M 2 9.285714285714285  L 2 24  L 23 24  L 23 9.285714285714285  L 2 9.285714285714285  Z M 7.557091346153847 6.833705357142856  C 7.647235576923077 6.746651785714285  7.6923076923076925 6.635416666666664  7.6923076923076925 6.5  L 7.6923076923076925 2.321428571428572  C 7.6923076923076925 2.1860119047619015  7.647235576923077 2.0747767857142847  7.557091346153847 1.9877232142857155  C 7.466947115384616 1.9006696428571437  7.351762820512821 1.8571428571428563  7.211538461538461 1.8571428571428563  L 6.25 1.8571428571428563  C 6.109775641025642 1.8571428571428563  5.994591346153847 1.9006696428571437  5.904447115384615 1.9877232142857155  C 5.814302884615385 2.0747767857142847  5.769230769230769 2.1860119047619015  5.769230769230769 2.321428571428572  L 5.769230769230769 6.5  C 5.769230769230769 6.635416666666664  5.814302884615385 6.746651785714285  5.904447115384615 6.833705357142856  C 5.994591346153847 6.920758928571428  6.109775641025642 6.964285714285715  6.25 6.964285714285715  L 7.211538461538461 6.964285714285715  C 7.351762820512821 6.964285714285715  7.466947115384616 6.920758928571428  7.557091346153847 6.833705357142856  Z M 19.095552884615387 6.833705357142856  C 19.185697115384613 6.746651785714285  19.230769230769234 6.635416666666664  19.230769230769234 6.5  L 19.230769230769234 2.321428571428572  C 19.230769230769234 2.1860119047619015  19.185697115384613 2.0747767857142847  19.095552884615387 1.9877232142857155  C 19.005408653846153 1.9006696428571437  18.89022435897436 1.8571428571428563  18.75 1.8571428571428563  L 17.78846153846154 1.8571428571428563  C 17.648237179487182 1.8571428571428563  17.533052884615387 1.9006696428571437  17.442908653846153 1.9877232142857155  C 17.352764423076923 2.0747767857142847  17.307692307692307 2.1860119047619015  17.307692307692307 2.321428571428572  L 17.307692307692307 6.5  C 17.307692307692307 6.635416666666664  17.352764423076923 6.746651785714285  17.442908653846153 6.833705357142856  C 17.533052884615387 6.920758928571428  17.648237179487182 6.964285714285715  17.78846153846154 6.964285714285715  L 18.75 6.964285714285715  C 18.89022435897436 6.964285714285715  19.005408653846153 6.920758928571428  19.095552884615387 6.833705357142856  Z M 24.42908653846154 4.265625  C 24.809695512820515 4.633184523809524  25 5.0684523809523805  25 5.571428571428572  L 25 24.142857142857142  C 25 24.645833333333336  24.809695512820515 25.08110119047619  24.42908653846154 25.448660714285715  C 24.048477564102566 25.816220238095237  23.597756410256412 26  23.076923076923077 26  L 1.9230769230769231 26  C 1.4022435897435899 26  0.951522435897436 25.816220238095237  0.5709134615384615 25.448660714285715  C 0.19030448717948717 25.08110119047619  0 24.645833333333336  0 24.142857142857142  L 0 5.571428571428572  C 0 5.0684523809523805  0.19030448717948717 4.633184523809524  0.5709134615384615 4.265625  C 0.951522435897436 3.898065476190473  1.4022435897435899 3.7142857142857153  1.9230769230769231 3.7142857142857153  L 3.8461538461538463 3.7142857142857153  L 3.8461538461538463 2.321428571428572  C 3.8461538461538463 1.6830357142857155  4.081530448717949 1.1365327380952366  4.552283653846153 0.6819196428571437  C 5.0230368589743595 0.2273065476190479  5.588942307692308 0  6.25 0  L 7.211538461538461 0  C 7.872596153846153 0  8.438501602564104 0.2273065476190479  8.909254807692307 0.6819196428571437  C 9.380008012820513 1.1365327380952366  9.615384615384617 1.6830357142857155  9.615384615384617 2.321428571428572  L 9.615384615384617 3.7142857142857153  L 15.384615384615385 3.7142857142857153  L 15.384615384615385 2.321428571428572  C 15.384615384615385 1.6830357142857155  15.619991987179487 1.1365327380952366  16.090745192307693 0.6819196428571437  C 16.5614983974359 0.2273065476190479  17.127403846153847 0  17.78846153846154 0  L 18.75 0  C 19.411057692307693 0  19.976963141025642 0.2273065476190479  20.447716346153847 0.6819196428571437  C 20.918469551282055 1.1365327380952366  21.153846153846153 1.6830357142857155  21.153846153846153 2.321428571428572  L 21.153846153846153 3.7142857142857153  L 23.076923076923077 3.7142857142857153  C 23.597756410256412 3.7142857142857153  24.048477564102566 3.898065476190473  24.42908653846154 4.265625  Z " fill-rule="nonzero" fill="#000000" stroke="none" transform="matrix(1 0 0 1 944 79 )" />
  </g>
</svg>