<?xml version="1.0" encoding="utf-8"?>
<svg version="1.1" xmlns:xlink="http://www.w3.org/1999/xlink" width="22px" height="13px" xmlns="http://www.w3.org/2000/svg">
  <g transform="matrix(1 0 0 1 -649 -10270 )">
    <path d="M 21.872685185185183 6.06892067620286  C 21.957561728395063 6.18162115301257  22.000000000000004 6.311226701343735  22 6.457737321196359  C 22.000000000000004 6.615517988729952  21.957561728395063 6.750758560901602  21.872685185185183 6.863459037711314  L 16.983796296296294 12.847854356306891  C 16.847993827160494 13.005635023840483  16.69945987654321 13.039445166883398  16.538194444444446 12.94928478543563  C 16.37692901234568 12.847854356306891  16.296296296296294 12.684438664932811  16.296296296296294 12.459037711313394  L 16.296296296296294 8.672301690507153  L 0.4074074074074074 8.672301690507153  C 0.28858024691358025 8.672301690507153  0.19097222222222224 8.621586475942784  0.11458333333333333 8.520156046814044  C 0.03819444444444444 8.418725617685306  0 8.289120069354137  0 8.131339401820545  L 0 4.8855656697009096  C 0 4.727785002167317  0.03819444444444444 4.598179453836151  0.11458333333333333 4.4967490247074124  C 0.19097222222222224 4.395318595578674  0.28858024691358025 4.344603381014304  0.4074074074074074 4.344603381014304  L 16.296296296296294 4.344603381014304  L 16.296296296296294 0.557867360208063  C 16.296296296296294 0.3211963589076726  16.37692901234568 0.15778066753359266  16.538194444444446 0.06762028608582604  C 16.69945987654321 -0.022540095361943457  16.847993827160494 0.005635023840484421  16.983796296296294 0.15214564369310823  L 21.872685185185183 6.06892067620286  Z " fill-rule="nonzero" fill="#333333" stroke="none" transform="matrix(1 0 0 1 649 10270 )" />
  </g>
</svg>