<?xml version="1.0" encoding="utf-8"?>
<svg version="1.1" xmlns:xlink="http://www.w3.org/1999/xlink" width="13px" height="25px" xmlns="http://www.w3.org/2000/svg">
  <g transform="matrix(1 0 0 1 -1028 -10388 )">
    <path d="M 12.776632302405497 1.5030060120240467  C 12.925544100801835 1.670006680026717  13 1.8620574482297898  13 2.0791583166332672  C 13 2.2962591850367393  12.925544100801835 2.4883099532398116  12.776632302405497 2.655310621242485  L 3.9982817869415808 12.5  L 12.776632302405497 22.344689378757515  C 12.925544100801835 22.511690046760187  13 22.703740814963258  13 22.92084168336673  C 13 23.13794255177021  12.925544100801835 23.329993319973276  12.776632302405497 23.49699398797595  L 11.659793814432991 24.749498997995993  C 11.510882016036657 24.916499665998664  11.339633447880873 25  11.146048109965635 25  C 10.952462772050403 25  10.781214203894619 24.916499665998664  10.632302405498281 24.749498997995993  L 0.22336769759450173 13.076152304609218  C 0.0744558991981673 12.909151636606545  0 12.717100868403472  0 12.5  C 0 12.282899131596526  0.0744558991981673 12.090848363393453  0.22336769759450173 11.923847695390782  L 10.632302405498281 0.25050100200400827  C 10.781214203894619 0.08350033400133516  10.952462772050403 0  11.146048109965635 0  C 11.339633447880873 0  11.510882016036657 0.08350033400133516  11.659793814432991 0.25050100200400827  L 12.776632302405497 1.5030060120240467  Z " fill-rule="nonzero" fill="#ffffff" stroke="none" transform="matrix(1 0 0 1 1028 10388 )" />
  </g>
</svg>