<?xml version="1.0" encoding="utf-8"?>
<svg version="1.1" xmlns:xlink="http://www.w3.org/1999/xlink" width="6px" height="8px" xmlns="http://www.w3.org/2000/svg">
  <g transform="matrix(1 0 0 1 764 -436 )">
    <path d="M 5.92578125 0.09895833333333304  C 5.975260416666666 0.16493055555555447  6 0.24305555555555447  6 0.33333333333333304  L 6 7.666666666666667  C 6 7.756944444444444  5.975260416666666 7.835069444444444  5.92578125 7.901041666666667  C 5.876302083333334 7.967013888888889  5.817708333333334 8  5.75 8  L 3.75 8  C 3.682291666666667 8  3.623697916666667 7.967013888888889  3.57421875 7.901041666666667  C 3.524739583333333 7.835069444444444  3.5 7.756944444444444  3.5 7.666666666666667  L 3.5 0.33333333333333304  C 3.5 0.24305555555555447  3.524739583333333 0.16493055555555447  3.57421875 0.09895833333333304  C 3.623697916666667 0.032986111111110716  3.682291666666667 0  3.75 0  L 5.75 0  C 5.817708333333334 0  5.876302083333334 0.032986111111110716  5.92578125 0.09895833333333304  Z M 2.42578125 0.09895833333333304  C 2.475260416666667 0.16493055555555447  2.5 0.24305555555555447  2.5 0.33333333333333304  L 2.5 7.666666666666667  C 2.5 7.756944444444444  2.475260416666667 7.835069444444444  2.42578125 7.901041666666667  C 2.3763020833333335 7.967013888888889  2.3177083333333335 8  2.25 8  L 0.25 8  C 0.18229166666666669 8  0.12369791666666666 7.967013888888889  0.07421875 7.901041666666667  C 0.024739583333333336 7.835069444444444  0 7.756944444444444  0 7.666666666666667  L 0 0.33333333333333304  C 0 0.24305555555555447  0.024739583333333336 0.16493055555555447  0.07421875 0.09895833333333304  C 0.12369791666666666 0.032986111111110716  0.18229166666666669 0  0.25 0  L 2.25 0  C 2.3177083333333335 0  2.3763020833333335 0.032986111111110716  2.42578125 0.09895833333333304  Z " fill-rule="nonzero" fill="#ffffff" stroke="none" transform="matrix(1 0 0 1 -764 436 )" />
  </g>
</svg>