<?xml version="1.0" encoding="utf-8"?>
<svg version="1.1" xmlns:xlink="http://www.w3.org/1999/xlink" width="5px" height="8px" xmlns="http://www.w3.org/2000/svg">
  <g transform="matrix(1 0 0 1 747 -436 )">
    <path d="M 4.876302083333333 0.125  C 4.958767361111111 0.20833333333333215  5 0.3070175438596481  5 0.4210526315789478  L 5 7.578947368421053  C 5 7.69298245614035  4.958767361111111 7.791666666666666  4.876302083333333 7.875  C 4.793836805555555 7.958333333333334  4.696180555555555 8  4.583333333333333 8  C 4.470486111111112 8  4.372829861111112 7.958333333333334  4.290364583333333 7.875  L 2.1223958333333335 5.684210526315789  L 0.41666666666666663 5.684210526315789  C 0.3038194444444445 5.684210526315789  0.20616319444444445 5.642543859649123  0.12369791666666666 5.559210526315789  C 0.04123263888888889 5.4758771929824555  0 5.37719298245614  0 5.2631578947368425  L 0 2.7368421052631575  C 0 2.6228070175438587  0.04123263888888889 2.5241228070175428  0.12369791666666666 2.4407894736842106  C 0.20616319444444445 2.3574561403508767  0.3038194444444445 2.3157894736842106  0.41666666666666663 2.3157894736842106  L 2.1223958333333335 2.3157894736842106  L 4.290364583333333 0.125  C 4.372829861111112 0.041666666666666075  4.470486111111112 0  4.583333333333333 0  C 4.696180555555555 0  4.793836805555555 0.041666666666666075  4.876302083333333 0.125  Z " fill-rule="nonzero" fill="#ffffff" stroke="none" transform="matrix(1 0 0 1 -747 436 )" />
  </g>
</svg>