<?xml version="1.0" encoding="utf-8"?>
<svg version="1.1" xmlns:xlink="http://www.w3.org/1999/xlink" width="7px" height="15px" xmlns="http://www.w3.org/2000/svg">
  <g transform="matrix(1 0 0 1 -13 -1796 )">
    <path d="M 6.8797250859106525 0.9018036072144281  C 6.959908361970219 1.0020040080160304  7 1.1172344689378737  7 1.2474949899799603  C 7 1.3777555110220434  6.959908361970219 1.4929859719438872  6.8797250859106525 1.593186372745491  L 2.152920962199313 7.5  L 6.8797250859106525 13.40681362725451  C 6.959908361970219 13.507014028056114  7 13.622244488977955  7 13.75250501002004  C 7 13.882765531062125  6.959908361970219 13.997995991983966  6.8797250859106525 14.098196392785573  L 6.278350515463917 14.849699398797595  C 6.198167239404353 14.9498997995992  6.105956471935854 15  6.001718213058419 15  C 5.8974799541809855 15  5.805269186712486 14.9498997995992  5.725085910652921 14.849699398797595  L 0.1202749140893471 7.845691382765531  C 0.040091638029782384 7.745490981963926  0 7.630260521042083  0 7.5  C 0 7.369739478957915  0.040091638029782384 7.254509018036072  0.1202749140893471 7.154308617234469  L 5.725085910652921 0.15030060120240496  C 5.805269186712486 0.0501002004008011  5.8974799541809855 0  6.001718213058419 0  C 6.105956471935854 0  6.198167239404353 0.0501002004008011  6.278350515463917 0.15030060120240496  L 6.8797250859106525 0.9018036072144281  Z " fill-rule="nonzero" fill="#333333" stroke="none" transform="matrix(1 0 0 1 13 1796 )" />
  </g>
</svg>