<?xml version="1.0" encoding="utf-8"?>
<svg version="1.1" xmlns:xlink="http://www.w3.org/1999/xlink" width="23px" height="29px" xmlns="http://www.w3.org/2000/svg">
  <g transform="matrix(1 0 0 1 -33 -743 )">
    <path d="M 22.847265625000002 20.966471354166664  C 22.94908854166667 21.916775173611107  23 22.926866319444443  23 23.996744791666668  C 23 25.368706597222225  22.625651041666668 26.545572916666668  21.876953125 27.52734375  C 21.128255208333336 28.509114583333332  20.22682291666667 29  19.17265625 29  L 3.8273437500000003 29  C 2.7731770833333336 29  1.871744791666667 28.509114583333332  1.1230468750000002 27.52734375  C 0.3743489583333334 26.545572916666668  0 25.368706597222225  0 23.996744791666668  C 0 22.926866319444443  0.05091145833333345 21.916775173611107  0.15273437500000014 20.966471354166664  C 0.2545572916666668 20.016167534722218  0.4432291666666668 19.0595703125  0.7187500000000001 18.0966796875  C 0.9942708333333337 17.1337890625  1.3446614583333334 16.30935329861111  1.7699218749999999 15.623372395833336  C 2.195182291666667 14.937391493055554  2.758203125 14.377278645833332  3.458984375 13.943033854166668  C 4.1597656249999995 13.5087890625  4.965364583333334 13.291666666666668  5.87578125 13.291666666666668  C 7.445052083333334 14.902777777777777  9.319791666666667 15.708333333333336  11.5 15.708333333333336  C 13.680208333333336 15.708333333333336  15.554947916666668 14.902777777777777  17.12421875 13.291666666666668  C 18.034635416666667 13.291666666666668  18.840234374999998 13.5087890625  19.541015625 13.943033854166668  C 20.241796875000002 14.377278645833332  20.804817708333335 14.937391493055554  21.230078125000002 15.623372395833336  C 21.65533854166667 16.30935329861111  22.00572916666667 17.1337890625  22.28125 18.0966796875  C 22.556770833333335 19.0595703125  22.745442708333336 20.016167534722218  22.847265625000002 20.966471354166664  Z M 16.378515625000002 2.1240234375  C 17.726171875000002 3.5400390625  18.400000000000002 5.248697916666668  18.400000000000002 7.25  C 18.400000000000002 9.251302083333332  17.726171875000002 10.9599609375  16.378515625000002 12.3759765625  C 15.030859375 13.7919921875  13.4046875 14.5  11.5 14.5  C 9.5953125 14.5  7.9691406250000005 13.7919921875  6.6214843750000005 12.3759765625  C 5.2738281250000005 10.9599609375  4.6000000000000005 9.251302083333332  4.6000000000000005 7.25  C 4.6000000000000005 5.248697916666668  5.2738281250000005 3.5400390625  6.6214843750000005 2.1240234375  C 7.9691406250000005 0.7080078125  9.5953125 0  11.5 0  C 13.4046875 0  15.030859375 0.7080078125  16.378515625000002 2.1240234375  Z " fill-rule="nonzero" fill="#333333" stroke="none" transform="matrix(1 0 0 1 33 743 )" />
  </g>
</svg>