<?xml version="1.0" encoding="utf-8"?>
<svg version="1.1" xmlns:xlink="http://www.w3.org/1999/xlink" width="23px" height="30px" xmlns="http://www.w3.org/2000/svg">
  <g transform="matrix(1 0 0 1 -33 -818 )">
    <path d="M 2 11  L 2 27.857142857142858  L 21 27.857142857142858  L 21 11  L 2 11  Z M 6.952524038461538 7.885044642857142  C 7.035456730769231 7.784598214285713  7.0769230769230775 7.656249999999998  7.0769230769230775 7.5  L 7.0769230769230775 2.678571428571429  C 7.0769230769230775 2.5223214285714244  7.035456730769231 2.3939732142857126  6.952524038461538 2.2935267857142874  C 6.869591346153847 2.193080357142858  6.763621794871795 2.142857142857142  6.634615384615384 2.142857142857142  L 5.75 2.142857142857142  C 5.620993589743591 2.142857142857142  5.515024038461539 2.193080357142858  5.432091346153846 2.2935267857142874  C 5.349158653846154 2.3939732142857126  5.307692307692308 2.5223214285714244  5.307692307692308 2.678571428571429  L 5.307692307692308 7.5  C 5.307692307692308 7.656249999999998  5.349158653846154 7.784598214285713  5.432091346153846 7.885044642857142  C 5.515024038461539 7.985491071428571  5.620993589743591 8.035714285714286  5.75 8.035714285714286  L 6.634615384615384 8.035714285714286  C 6.763621794871795 8.035714285714286  6.869591346153847 7.985491071428571  6.952524038461538 7.885044642857142  Z M 17.567908653846153 7.885044642857142  C 17.650841346153847 7.784598214285713  17.692307692307693 7.656249999999998  17.692307692307693 7.5  L 17.692307692307693 2.678571428571429  C 17.692307692307693 2.5223214285714244  17.650841346153847 2.3939732142857126  17.567908653846153 2.2935267857142874  C 17.48497596153846 2.193080357142858  17.379006410256412 2.142857142857142  17.25 2.142857142857142  L 16.365384615384617 2.142857142857142  C 16.236378205128204 2.142857142857142  16.130408653846153 2.193080357142858  16.04747596153846 2.2935267857142874  C 15.964543269230768 2.3939732142857126  15.923076923076923 2.5223214285714244  15.923076923076923 2.678571428571429  L 15.923076923076923 7.5  C 15.923076923076923 7.656249999999998  15.964543269230768 7.784598214285713  16.04747596153846 7.885044642857142  C 16.130408653846153 7.985491071428571  16.236378205128204 8.035714285714286  16.365384615384617 8.035714285714286  L 17.25 8.035714285714286  C 17.379006410256412 8.035714285714286  17.48497596153846 7.985491071428571  17.567908653846153 7.885044642857142  Z M 22.474759615384617 4.921875  C 22.824919871794872 5.345982142857143  23 5.848214285714285  23 6.428571428571429  L 23 27.857142857142858  C 23 28.437500000000004  22.824919871794872 28.939732142857146  22.474759615384617 29.36383928571429  C 22.12459935897436 29.787946428571427  21.709935897435898 30  21.230769230769234 30  L 1.7692307692307694 30  C 1.2900641025641029 30  0.8754006410256411 29.787946428571427  0.5252403846153846 29.36383928571429  C 0.1750801282051282 28.939732142857146  0 28.437500000000004  0 27.857142857142858  L 0 6.428571428571429  C 0 5.848214285714285  0.1750801282051282 5.345982142857143  0.5252403846153846 4.921875  C 0.8754006410256411 4.497767857142854  1.2900641025641029 4.285714285714287  1.7692307692307694 4.285714285714287  L 3.5384615384615388 4.285714285714287  L 3.5384615384615388 2.678571428571429  C 3.5384615384615388 1.9419642857142871  3.7550080128205128 1.3113839285714268  4.188100961538462 0.7868303571428581  C 4.6211939102564115 0.26227678571428603  5.141826923076923 0  5.75 0  L 6.634615384615384 0  C 7.242788461538462 0  7.763421474358975 0.26227678571428603  8.196514423076923 0.7868303571428581  C 8.629607371794872 1.3113839285714268  8.846153846153847 1.9419642857142871  8.846153846153847 2.678571428571429  L 8.846153846153847 4.285714285714287  L 14.153846153846155 4.285714285714287  L 14.153846153846155 2.678571428571429  C 14.153846153846155 1.9419642857142871  14.37039262820513 1.3113839285714268  14.803485576923077 0.7868303571428581  C 15.236578525641029 0.26227678571428603  15.757211538461538 0  16.365384615384617 0  L 17.25 0  C 17.858173076923077 0  18.37880608974359 0.26227678571428603  18.81189903846154 0.7868303571428581  C 19.24499198717949 1.3113839285714268  19.46153846153846 1.9419642857142871  19.46153846153846 2.678571428571429  L 19.46153846153846 4.285714285714287  L 21.230769230769234 4.285714285714287  C 21.709935897435898 4.285714285714287  22.12459935897436 4.497767857142854  22.474759615384617 4.921875  Z " fill-rule="nonzero" fill="#333333" stroke="none" transform="matrix(1 0 0 1 33 818 )" />
  </g>
</svg>