<?xml version="1.0" encoding="utf-8"?>
<svg version="1.1" xmlns:xlink="http://www.w3.org/1999/xlink" width="23px" height="29px" xmlns="http://www.w3.org/2000/svg">
  <g transform="matrix(1 0 0 1 -33 -896 )">
    <path d="M 18.94419642857143 15.557291666666664  C 20.552827380952383 13.19097222222222  21.357142857142858 10.950520833333332  21.357142857142858 8.8359375  C 21.357142857142858 7.81640625  21.265159970238095 6.916449652777777  21.08119419642857 6.136067708333332  C 20.897228422619047 5.355685763888885  20.66192336309524 4.735785590277777  20.375279017857142 4.2763671875  C 20.08863467261905 3.8169487847222205  19.73995535714286 3.442491319444444  19.32924107142857 3.152994791666668  C 18.91852678571429 2.863498263888885  18.516369047619047 2.6684027777777763  18.122767857142858 2.567708333333332  C 17.729166666666668 2.467013888888885  17.309895833333336 2.416666666666668  16.864955357142858 2.416666666666668  C 16.420014880952383 2.416666666666668  15.940848214285714 2.5771484375  15.427455357142858 2.898111979166668  C 14.9140625 3.219075520833332  14.441313244047619 3.6218532986111085  14.009207589285714 4.1064453125  C 13.577101934523812 4.591037326388885  13.20703125 5.044162326388885  12.898995535714286 5.4658203125  C 12.590959821428573 5.887478298611109  12.334263392857144 6.274522569444444  12.12890625 6.626953125  C 11.974888392857144 6.9038628472222205  11.765252976190478 7.042317708333332  11.5 7.042317708333332  C 11.234747023809524 7.042317708333332  11.025111607142856 6.9038628472222205  10.87109375 6.626953125  C 10.665736607142856 6.274522569444444  10.409040178571429 5.887478298611109  10.101004464285715 5.4658203125  C 9.79296875 5.044162326388885  9.422898065476192 4.591037326388885  8.990792410714285 4.1064453125  C 8.558686755952381 3.6218532986111085  8.0859375 3.219075520833332  7.572544642857143 2.898111979166668  C 7.059151785714286 2.5771484375  6.57998511904762 2.416666666666668  6.135044642857143 2.416666666666668  C 5.690104166666667 2.416666666666668  5.270833333333335 2.467013888888885  4.877232142857142 2.567708333333332  C 4.483630952380953 2.6684027777777763  4.081473214285714 2.863498263888885  3.6707589285714284 3.152994791666668  C 3.260044642857143 3.442491319444444  2.9113653273809526 3.8169487847222205  2.624720982142857 4.2763671875  C 2.338076636904762 4.735785590277777  2.1027715773809526 5.355685763888885  1.9188058035714286 6.136067708333332  C 1.734840029761905 6.916449652777777  1.6428571428571428 7.81640625  1.6428571428571428 8.8359375  C 1.6428571428571428 10.950520833333332  2.4428943452380953 13.184678819444445  4.04296875 15.538411458333336  L 11.5 26.111328125  L 18.94419642857143 15.557291666666664  Z M 21.36997767857143 2.341145833333332  C 22.456659226190478 3.9019097222222205  23 6.066840277777777  23 8.8359375  C 23 11.617621527777777  22.020275297619047 14.449652777777777  20.060825892857142 17.33203125  L 12.064732142857142 28.66015625  C 11.910714285714286 28.88671875  11.722470238095239 29  11.5 29  C 11.277529761904763 29  11.089285714285715 28.88671875  10.935267857142856 28.66015625  L 2.9263392857142856 17.294270833333336  C 2.8407738095238098 17.19357638888889  2.723121279761905 17.029947916666664  2.573381696428571 16.803385416666664  C 2.423642113095238 16.576822916666664  2.186197916666667 16.164605034722225  1.8610491071428572 15.566731770833336  C 1.5359002976190477 14.968858506944441  1.2449776785714286 14.355251736111109  0.98828125 13.725911458333332  C 0.7315848214285714 13.096571180555555  0.5026971726190477 12.335069444444445  0.3016183035714286 11.44140625  C 0.10053943452380952 10.547743055555554  0 9.67925347222222  0 8.8359375  C 0 6.066840277777777  0.5433407738095237 3.9019097222222205  1.6300223214285714 2.341145833333332  C 2.7167038690476195 0.7803819444444441  4.218377976190476 0  6.135044642857143 0  C 6.665550595238095 0  7.206752232142857 0.13530815972222043  7.758649553571429 0.40592447916666774  C 8.310546875 0.6765407986111086  8.823939732142856 1.0415581597222205  9.298828125 1.5009765625  C 9.773716517857144 1.9603949652777763  10.18229166666667 2.3914930555555527  10.524553571428571 2.794270833333332  C 10.866815476190478 3.1970486111111085  11.191964285714285 3.625  11.5 4.078125  C 11.808035714285714 3.625  12.133184523809526 3.1970486111111085  12.475446428571429 2.794270833333332  C 12.817708333333336 2.3914930555555527  13.226283482142858 1.9603949652777763  13.701171875 1.5009765625  C 14.176060267857142 1.0415581597222205  14.689453125 0.6765407986111086  15.241350446428571 0.40592447916666774  C 15.793247767857142 0.13530815972222043  16.334449404761905 0  16.864955357142858 0  C 18.781622023809526 0  20.283296130952383 0.7803819444444441  21.36997767857143 2.341145833333332  Z " fill-rule="nonzero" fill="#000000" stroke="none" transform="matrix(1 0 0 1 33 896 )" />
  </g>
</svg>