<svg width="32" height="32" viewBox="0 0 32 32" fill="none" xmlns="http://www.w3.org/2000/svg">
<path fill-rule="evenodd" clip-rule="evenodd" d="M4 19C2.89543 19 2 19.8954 2 21V27C2 28.1046 2.89543 29 4 29H6C6.61461 29 7.16447 28.7228 7.53134 28.2865C8.04561 28.4768 8.75259 28.7193 9.60028 28.9615C11.4028 29.4765 13.8753 30 16.5 30C18.9494 30 21.7374 29.0305 23.9921 28.0265C26.2757 27.0096 28.1441 25.8961 28.7912 25.4974C29.0804 25.3192 29.3112 25.0859 29.4876 24.8214C30.2697 23.6483 29.8466 22.0553 28.5856 21.4248L28.5282 21.3961C27.8966 21.0803 27.1581 21.0586 26.509 21.3367L22.4633 23.0706C22.36 22.4718 22.0389 21.9042 21.5 21.5C21.0677 21.1758 20.5423 21 20.0008 21H16.5C15.7186 21 14.9317 20.8237 13.917 20.5964C13.8112 20.5727 13.7029 20.5485 13.5919 20.5238C12.4505 20.2702 11.1133 20 9.5 20H7.73244C7.38663 19.4022 6.74028 19 6 19H4ZM6 21H4V27H6V21ZM8 26.326C8.04208 26.3421 8.08623 26.3589 8.13237 26.3762C8.61143 26.5558 9.30448 26.797 10.1497 27.0385C11.8472 27.5235 14.1247 28 16.5 28C18.5107 28 20.9787 27.1791 23.1785 26.1995C25.3495 25.2327 27.1342 24.1692 27.7419 23.7947C27.7677 23.7788 27.7947 23.7552 27.8235 23.712C27.9382 23.5398 27.8762 23.3061 27.6912 23.2136L27.6338 23.1849C27.5284 23.1322 27.4052 23.1286 27.2969 23.175L20.8939 25.9191C20.8449 25.9402 20.7943 25.9572 20.7425 25.9701L20.7393 25.971L20.7331 25.9725L20.7122 25.9776C20.6945 25.9819 20.6694 25.9879 20.6374 25.9953C20.5733 26.0103 20.4815 26.0311 20.3658 26.0559C20.1346 26.1055 19.8069 26.171 19.4144 26.2364C18.635 26.3663 17.5756 26.5 16.5 26.5C15.3603 26.5 14.1293 26.2198 13.2253 25.9615C12.7643 25.8298 12.3696 25.6982 12.0891 25.5992C11.9486 25.5497 11.836 25.508 11.7574 25.4783C11.7181 25.4634 11.6872 25.4515 11.6655 25.443L11.6399 25.433L11.6325 25.43L11.6289 25.4286L11.989 24.5274C11.6286 25.4285 11.6289 25.4286 11.6289 25.4286C11.1161 25.2235 10.8664 24.6414 11.0715 24.1286C11.2766 23.616 11.8583 23.3666 12.3709 23.5713L12.3745 23.5728L12.3916 23.5795C12.4075 23.5856 12.4323 23.5952 12.4652 23.6077C12.5312 23.6326 12.6296 23.6691 12.7547 23.7133C13.0054 23.8018 13.3607 23.9202 13.7747 24.0385C14.6207 24.2802 15.6397 24.5 16.5 24.5C17.4244 24.5 18.365 24.3837 19.0856 24.2636C19.4431 24.204 19.7404 24.1445 19.9467 24.1003C19.9918 24.0907 20.0324 24.0818 20.0683 24.0738L20.3 23.9C20.5667 23.7 20.5667 23.3 20.3 23.1C20.213 23.0348 20.1084 23 20.0008 23H16.5C15.4824 23 14.4702 22.7717 13.4987 22.5526C13.3846 22.5269 13.271 22.5013 13.1581 22.4762C12.0495 22.2298 10.8867 22 9.5 22H8.00043L8 26.326Z" fill="black"/>
<path fill-rule="evenodd" clip-rule="evenodd" d="M9.61803 2C8.86049 2 8.16796 2.428 7.82918 3.10557L6.39519 5.97355C6.04276 6.67842 6.1371 7.52453 6.63613 8.13445L15.226 18.6332C15.416 18.8654 15.7001 19 16 19C16.2999 19 16.584 18.8654 16.774 18.6332L25.3639 8.13446C25.8629 7.52453 25.9572 6.67842 25.6048 5.97355L24.1708 3.10557C23.832 2.428 23.1395 2 22.382 2H9.61803ZM18.7654 4H22.382L23.632 6.5H19.3904L18.7654 4ZM18.3596 6.5L17.7346 4H14.2654L13.6404 6.5H18.3596ZM13.6937 7.5H18.3063L16 14.4189L13.6937 7.5ZM12.6096 6.5L13.2346 4H9.61803L8.36803 6.5H12.6096ZM8.70115 7.5H12.6396L15.3473 15.6231L8.70115 7.5ZM19.3604 7.5H23.2988L16.6527 15.623L19.3604 7.5Z" fill="black"/>
</svg>
