<svg width="32" height="32" viewBox="0 0 32 32" fill="none" xmlns="http://www.w3.org/2000/svg">
<path fill-rule="evenodd" clip-rule="evenodd" d="M10 3C10 2.44772 9.55228 2 9 2C8.44772 2 8 2.44772 8 3V5H5C3.34315 5 2 6.34315 2 8V27C2 28.6569 3.34314 30 5 30H27C28.6569 30 30 28.6569 30 27V8C30 6.34315 28.6569 5 27 5H24V3C24 2.44772 23.5523 2 23 2C22.4477 2 22 2.44772 22 3V5H10V3ZM28 12V8C28 7.44772 27.5523 7 27 7H24V9C24 9.55228 23.5523 10 23 10C22.4477 10 22 9.55228 22 9V7H10V9C10 9.55228 9.55228 10 9 10C8.44772 10 8 9.55228 8 9V7H5C4.44772 7 4 7.44772 4 8V12H28ZM4 14H28V27C28 27.5523 27.5523 28 27 28H5C4.44772 28 4 27.5523 4 27V14Z" fill="black"/>
<path fill-rule="evenodd" clip-rule="evenodd" d="M22 18C19.7909 18 18 19.7909 18 22C18 24.2091 19.7909 26 22 26C24.2091 26 26 24.2091 26 22C26 19.7909 24.2091 18 22 18ZM17 22C17 19.2386 19.2386 17 22 17C24.7614 17 27 19.2386 27 22C27 24.7614 24.7614 27 22 27C19.2386 27 17 24.7614 17 22Z" fill="black"/>
<path fill-rule="evenodd" clip-rule="evenodd" d="M24.3536 20.6464C24.1583 20.4512 23.8417 20.4512 23.6464 20.6464L21.5 22.7929L20.3536 21.6464C20.1583 21.4512 19.8417 21.4512 19.6464 21.6464C19.4512 21.8417 19.4512 22.1583 19.6464 22.3536L21.1464 23.8536C21.2402 23.9473 21.3674 24 21.5 24C21.6326 24 21.7598 23.9473 21.8536 23.8536L24.3536 21.3536C24.5488 21.1583 24.5488 20.8417 24.3536 20.6464Z" fill="black"/>
<path fill-rule="evenodd" clip-rule="evenodd" d="M6 16.5C6 16.2239 6.22386 16 6.5 16H10.5C10.7761 16 11 16.2239 11 16.5C11 16.7761 10.7761 17 10.5 17H6.5C6.22386 17 6 16.7761 6 16.5Z" fill="black"/>
<path fill-rule="evenodd" clip-rule="evenodd" d="M6 19C6 18.7239 6.22386 18.5 6.5 18.5H15.5C15.7761 18.5 16 18.7239 16 19C16 19.2761 15.7761 19.5 15.5 19.5H6.5C6.22386 19.5 6 19.2761 6 19Z" fill="black"/>
</svg>
