<svg width="32" height="32" viewBox="0 0 32 32" fill="none" xmlns="http://www.w3.org/2000/svg">
<path fill-rule="evenodd" clip-rule="evenodd" d="M26.7086 3.29281C24.9797 1.56393 22.4081 2.05536 20.6302 2.91141C19.6919 3.36318 18.8275 3.976 18.1831 4.63864C17.98 4.84746 17.7794 5.08122 17.6028 5.33405C17.1121 5.11921 16.57 5 16 5C15.4305 5 14.8888 5.11903 14.3983 5.33356C14.2218 5.08092 14.0214 4.84732 13.8184 4.63864C13.1739 3.976 12.3096 3.36318 11.3713 2.91141C9.59335 2.05536 7.02174 1.56393 5.29287 3.29281C4.71162 3.87407 4.41918 4.6589 4.47912 5.48628C4.53855 6.30655 4.93621 7.10045 5.60533 7.76958C5.68362 7.84787 5.76578 7.92469 5.85181 7.99994H3C2.44772 7.99994 2 8.44765 2 8.99994V14.9999C2 15.5522 2.44772 15.9999 3 15.9999H4V29C4 29.5523 4.44772 30 5 30H27C27.5523 30 28 29.5523 28 29V15.9999H29C29.5523 15.9999 30 15.5522 30 14.9999V8.99994C30 8.44765 29.5523 7.99994 29 7.99994H26.1497C26.2357 7.92469 26.3178 7.84787 26.3961 7.76958C27.0653 7.10045 27.4629 6.30655 27.5223 5.48628C27.5823 4.6589 27.2899 3.87407 26.7086 3.29281ZM12.1312 7.9802C12.2673 7.46226 12.5047 6.98538 12.821 6.57198C12.7272 6.42349 12.588 6.24211 12.3847 6.03308C11.9198 5.55509 11.2529 5.07415 10.5037 4.71342C8.90662 3.94446 7.47823 3.93588 6.70709 4.70702C6.53831 4.87579 6.45573 5.091 6.4739 5.34176C6.49258 5.59963 6.62617 5.96199 7.01954 6.35536C7.74619 7.08201 9.315 7.84858 12.1312 7.9802ZM19.8688 7.98026C19.7328 7.46274 19.4957 6.9862 19.1799 6.57303C19.2736 6.42434 19.413 6.2426 19.6168 6.03308C20.0817 5.55509 20.7486 5.07415 21.4978 4.71342C23.0949 3.94446 24.5232 3.93588 25.2944 4.70702C25.4632 4.87579 25.5457 5.091 25.5276 5.34176C25.5089 5.59963 25.3753 5.96199 24.9819 6.35536C24.2552 7.08214 22.6859 7.84884 19.8688 7.98026ZM17.7324 7.99994C17.3866 7.40217 16.7403 7 16 7C15.2597 7 14.6134 7.40217 14.2676 7.99994H17.7324ZM19.5 10L28 9.99994V13.9999H19.5V10ZM18.5 10V13.9999H13.5V10H18.5ZM12.5 10V13.9999H4V9.99994L12.5 10ZM13.5 28V16H18.5V28H13.5ZM19.5 16V28H26V16H19.5ZM12.5 16H6V28H12.5V16Z" fill="black"/>
</svg>
