<?xml version="1.0" encoding="utf-8"?>
<svg version="1.1" xmlns:xlink="http://www.w3.org/1999/xlink" width="16px" height="16px" xmlns="http://www.w3.org/2000/svg">
  <defs>
    <mask fill="white" id="clip138">
      <path d="M 16 4.631578947368423  C 16 2.037894736842105  14.064000000000002 0  11.6 0  C 10.207999999999993 0  8.871999999999995 0.6821052631578937  8 1.7599999999999991  C 7.1280000000000046 0.6821052631578937  5.792 0  4.4 0  C 1.9359999999999975 0  0 2.037894736842105  0 4.631578947368423  C 0 7.81473684210526  2.719999999999997 10.408421052631573  6.839999999999994 14.349473684210531  L 8 15.452631578947367  L 9.160000000000005 14.34105263157895  C 13.280000000000003 10.408421052631573  16 7.81473684210526  16 4.631578947368423  Z " fill-rule="evenodd" />
    </mask>
  </defs>
  <g transform="matrix(1 0 0 1 -92 -583 )">
    <path d="M 16 4.631578947368423  C 16 2.037894736842105  14.064000000000002 0  11.6 0  C 10.207999999999993 0  8.871999999999995 0.6821052631578937  8 1.7599999999999991  C 7.1280000000000046 0.6821052631578937  5.792 0  4.4 0  C 1.9359999999999975 0  0 2.037894736842105  0 4.631578947368423  C 0 7.81473684210526  2.719999999999997 10.408421052631573  6.839999999999994 14.349473684210531  L 8 15.452631578947367  L 9.160000000000005 14.34105263157895  C 13.280000000000003 10.408421052631573  16 7.81473684210526  16 4.631578947368423  Z " fill-rule="nonzero" fill="#ffffff" stroke="none" fill-opacity="0" transform="matrix(1 0 0 1 92 583 )" />
    <path d="M 16 4.631578947368423  C 16 2.037894736842105  14.064000000000002 0  11.6 0  C 10.207999999999993 0  8.871999999999995 0.6821052631578937  8 1.7599999999999991  C 7.1280000000000046 0.6821052631578937  5.792 0  4.4 0  C 1.9359999999999975 0  0 2.037894736842105  0 4.631578947368423  C 0 7.81473684210526  2.719999999999997 10.408421052631573  6.839999999999994 14.349473684210531  L 8 15.452631578947367  L 9.160000000000005 14.34105263157895  C 13.280000000000003 10.408421052631573  16 7.81473684210526  16 4.631578947368423  Z " stroke-width="4" stroke="#000000" fill="none" transform="matrix(1 0 0 1 92 583 )" mask="url(#clip138)" />
  </g>
</svg>