<svg xmlns="http://www.w3.org/2000/svg" fill="none" viewBox="0 0 16 16"><path fill="#FFB900" d="M8 4 6.586 2.586A2 2 0 0 0 5.172 2H1a1 1 0 0 0-1 1v10a1 1 0 0 0 1 1h14a1 1 0 0 0 1-1V5a1 1 0 0 0-1-1H8z"/><path fill="#FFD75E" d="M8 4 6.586 5.414A2 2 0 0 1 5.172 6H0v7a1 1 0 0 0 1 1h14a1 1 0 0 0 1-1V5a1 1 0 0 0-1-1H8z"/><path fill="url(#a)" d="M8 4 6.586 5.414A2 2 0 0 1 5.172 6H0v7a1 1 0 0 0 1 1h14a1 1 0 0 0 1-1V5a1 1 0 0 0-1-1H8z"/><path fill="#E67628" d="M1 13.5c-.373 0-.71-.142-.973-.367A.989.989 0 0 0 1 14h14c.505 0 .905-.38.973-.867-.262.226-.6.367-.973.367H1z"/><path fill="#fff" d="M6.836 5.914 8.75 4H8L6.586 5.414A2 2 0 0 1 5.172 6H0v.5h5.422a2 2 0 0 0 1.414-.586z" opacity=".4"/><path fill="#BF5712" fill-rule="evenodd" d="M1.25 8h6.5a.25.25 0 0 1 .25.25v3.5a.25.25 0 0 1-.25.25h-6.5a.25.25 0 0 1-.25-.25V11h1V9H1v-.75A.25.25 0 0 1 1.25 8zm8.5 3h-.5a.25.25 0 0 1-.25-.25v-1.5A.25.25 0 0 1 9.25 9h.5a.25.25 0 0 1 .25.25v1.5a.25.25 0 0 1-.25.25zm2 0h-.5a.25.25 0 0 1-.25-.25v-1.5a.25.25 0 0 1 .25-.25h.5a.25.25 0 0 1 .25.25v1.5a.25.25 0 0 1-.25.25zm1.5 0h.5a.25.25 0 0 0 .25-.25v-1.5a.25.25 0 0 0-.25-.25h-.5a.25.25 0 0 0-.25.25v1.5c0 .138.112.25.25.25zm2.5 0h-.5a.25.25 0 0 1-.25-.25v-1.5a.25.25 0 0 1 .25-.25h.5a.25.25 0 0 1 .25.25v1.5a.25.25 0 0 1-.25.25zM7 11H5V9h2v2zm-7 0h.75a.25.25 0 0 0 .25-.25v-1.5A.25.25 0 0 0 .75 9H0v2z" clip-rule="evenodd"/><defs><linearGradient id="a" x1="0" x2="0" y1="4" y2="14" gradientUnits="userSpaceOnUse"><stop stop-color="#fff" stop-opacity=".01"/><stop offset=".999" stop-color="#FFD75E" stop-opacity=".3"/></linearGradient></defs></svg>