<?xml version="1.0" encoding="utf-8"?>
<svg version="1.1" xmlns:xlink="http://www.w3.org/1999/xlink" width="31px" height="29px" xmlns="http://www.w3.org/2000/svg">
  <g transform="matrix(1 0 0 1 -22 -10386 )">
    <path d="M 8.266666666666666 10.357142857142856  C 8.266666666666666 11.856770833333332  8.702604166666665 13.237723214285715  9.574479166666666 14.5  C 7.830729166666667 14.553943452380953  6.404513888888889 15.24441964285714  5.295833333333333 16.57142857142857  L 3.1322916666666667 16.57142857142857  C 2.2496527777777775 16.57142857142857  1.5069444444444446 16.352957589285715  0.9041666666666667 15.916015625  C 0.3013888888888888 15.479073660714285  0 14.83984375  0 13.998325892857144  C 0 10.189918154761903  0.667361111111111 8.285714285714285  2.0020833333333337 8.285714285714285  C 2.0666666666666664 8.285714285714285  2.30078125 8.398995535714285  2.704427083333333 8.625558035714285  C 3.108072916666667 8.852120535714285  3.6328125 9.081380208333332  4.278645833333334 9.313337053571429  C 4.924479166666666 9.545293898809524  5.564930555555556 9.661272321428571  6.2 9.661272321428571  C 6.921180555555556 9.661272321428571  7.636979166666667 9.53720238095238  8.347395833333334 9.2890625  C 8.293576388888889 9.688244047619044  8.266666666666666 10.044270833333332  8.266666666666666 10.357142857142856  Z M 26.810156250000002 23.13364955357143  C 26.847829861111116 23.678478422619047  26.866666666666667 24.236793154761905  26.866666666666667 24.80859375  C 26.866666666666667 26.103236607142854  26.473784722222224 27.125465029761905  25.688020833333333 27.875279017857146  C 24.90225694444445 28.62509300595238  23.858159722222226 29  22.55572916666667 29  L 8.444270833333334 29  C 7.141840277777778 29  6.097743055555557 28.62509300595238  5.311979166666667 27.875279017857146  C 4.526215277777778 27.125465029761905  4.133333333333333 26.103236607142854  4.133333333333333 24.80859375  C 4.133333333333333 24.236793154761905  4.15217013888889 23.678478422619047  4.1898437500000005 23.13364955357143  C 4.227517361111112 22.58882068452381  4.302864583333333 22.00083705357143  4.415885416666667 21.369698660714285  C 4.5289062499999995 20.738560267857142  4.671527777777778 20.15327380952381  4.84375 19.613839285714285  C 5.0159722222222225 19.07440476190476  5.247395833333334 18.548456101190474  5.538020833333333 18.03599330357143  C 5.828645833333333 17.52353050595238  6.162326388888889 17.086588541666664  6.5390625 16.725167410714285  C 6.915798611111112 16.363746279761905  7.375954861111112 16.07514880952381  7.91953125 15.859375  C 8.463107638888891 15.643601190476188  9.063194444444445 15.535714285714285  9.719791666666666 15.535714285714285  C 9.827430555555557 15.535714285714285  10.058854166666666 15.651692708333332  10.4140625 15.883649553571429  C 10.769270833333334 16.115606398809522  11.162152777777777 16.374534970238095  11.592708333333334 16.660435267857142  C 12.023263888888891 16.94633556547619  12.599131944444446 17.20526413690476  13.3203125 17.437220982142858  C 14.041493055555556 17.669177827380953  14.768055555555556 17.78515625  15.5 17.78515625  C 16.231944444444444 17.78515625  16.958506944444444 17.669177827380953  17.6796875 17.437220982142858  C 18.40086805555556 17.20526413690476  18.976736111111116 16.94633556547619  19.40729166666667 16.660435267857142  C 19.837847222222223 16.374534970238095  20.230729166666666 16.115606398809522  20.5859375 15.883649553571429  C 20.941145833333334 15.651692708333332  21.172569444444445 15.535714285714285  21.28020833333333 15.535714285714285  C 21.93680555555556 15.535714285714285  22.536892361111114 15.643601190476188  23.080468749999998 15.859375  C 23.624045138888892 16.07514880952381  24.08420138888889 16.363746279761905  24.4609375 16.725167410714285  C 24.837673611111114 17.086588541666664  25.171354166666667 17.52353050595238  25.46197916666667 18.03599330357143  C 25.752604166666664 18.548456101190474  25.984027777777783 19.07440476190476  26.15625 19.613839285714285  C 26.328472222222224 20.15327380952381  26.471093749999998 20.738560267857142  26.58411458333333 21.369698660714285  C 26.69713541666667 22.00083705357143  26.772482638888892 22.58882068452381  26.810156250000002 23.13364955357143  Z M 9.122395833333332 1.2137276785714295  C 9.9296875 2.022879464285715  10.333333333333332 2.99925595238095  10.333333333333332 4.142857142857144  C 10.333333333333332 5.286458333333332  9.9296875 6.26283482142857  9.122395833333332 7.071986607142856  C 8.315104166666668 7.881138392857144  7.340972222222223 8.285714285714285  6.2 8.285714285714285  C 5.059027777777779 8.285714285714285  4.084895833333333 7.881138392857144  3.2776041666666664 7.071986607142856  C 2.4703125 6.26283482142857  2.0666666666666664 5.286458333333332  2.0666666666666664 4.142857142857144  C 2.0666666666666664 2.99925595238095  2.4703125 2.022879464285715  3.2776041666666664 1.2137276785714295  C 4.084895833333333 0.40457589285714424  5.059027777777779 0  6.2 0  C 7.340972222222223 0  8.315104166666668 0.40457589285714424  9.122395833333332 1.2137276785714295  Z M 19.88359375 5.963448660714286  C 21.09453125 7.177176339285714  21.7 8.641741071428571  21.7 10.357142857142856  C 21.7 12.072544642857144  21.09453125 13.537109375  19.88359375 14.750837053571429  C 18.67265625 15.96456473214286  17.211458333333333 16.57142857142857  15.5 16.57142857142857  C 13.788541666666669 16.57142857142857  12.32734375 15.96456473214286  11.116406249999999 14.750837053571429  C 9.905468749999999 13.537109375  9.299999999999999 12.072544642857144  9.299999999999999 10.357142857142856  C 9.299999999999999 8.641741071428571  9.905468749999999 7.177176339285714  11.116406249999999 5.963448660714286  C 12.32734375 4.749720982142856  13.788541666666669 4.142857142857144  15.5 4.142857142857144  C 17.211458333333333 4.142857142857144  18.67265625 4.749720982142856  19.88359375 5.963448660714286  Z M 28.99791666666667 8.285714285714285  C 30.332638888888894 8.285714285714285  31.000000000000007 10.189918154761903  31 13.998325892857144  C 31.000000000000007 14.83984375  30.698611111111113 15.479073660714285  30.09583333333333 15.916015625  C 29.493055555555557 16.352957589285715  28.750347222222224 16.57142857142857  27.867708333333333 16.57142857142857  L 25.70416666666667 16.57142857142857  C 24.595486111111114 15.24441964285714  23.169270833333336 14.553943452380953  21.425520833333334 14.5  C 22.297395833333333 13.237723214285715  22.73333333333333 11.856770833333332  22.73333333333333 10.357142857142856  C 22.73333333333333 10.044270833333332  22.706423611111113 9.688244047619044  22.652604166666666 9.2890625  C 23.363020833333334 9.53720238095238  24.078819444444445 9.661272321428571  24.8 9.661272321428571  C 25.435069444444444 9.661272321428571  26.075520833333336 9.545293898809524  26.721354166666664 9.313337053571429  C 27.3671875 9.081380208333332  27.891927083333336 8.852120535714285  28.295572916666664 8.625558035714285  C 28.69921875 8.398995535714285  28.933333333333334 8.285714285714285  28.99791666666667 8.285714285714285  Z M 27.722395833333334 1.2137276785714295  C 28.529687499999998 2.022879464285715  28.933333333333334 2.99925595238095  28.933333333333334 4.142857142857144  C 28.933333333333334 5.286458333333332  28.529687499999998 6.26283482142857  27.722395833333334 7.071986607142856  C 26.91510416666667 7.881138392857144  25.94097222222222 8.285714285714285  24.8 8.285714285714285  C 23.65902777777778 8.285714285714285  22.684895833333336 7.881138392857144  21.877604166666664 7.071986607142856  C 21.0703125 6.26283482142857  20.666666666666664 5.286458333333332  20.666666666666664 4.142857142857144  C 20.666666666666664 2.99925595238095  21.0703125 2.022879464285715  21.877604166666664 1.2137276785714295  C 22.684895833333336 0.40457589285714424  23.65902777777778 0  24.8 0  C 25.94097222222222 0  26.91510416666667 0.40457589285714424  27.722395833333334 1.2137276785714295  Z " fill-rule="nonzero" fill="#ffffff" stroke="none" transform="matrix(1 0 0 1 22 10386 )" />
  </g>
</svg>