<?xml version="1.0" encoding="utf-8"?>
<svg version="1.1" xmlns:xlink="http://www.w3.org/1999/xlink" width="25px" height="29px" xmlns="http://www.w3.org/2000/svg">
  <g transform="matrix(1 0 0 1 -25 -10468 )">
    <path d="M 24.833984375 20.966471354166664  C 24.944661458333332 21.916775173611107  25 22.926866319444443  25 23.996744791666668  C 25 25.368706597222225  24.593098958333336 26.545572916666668  23.779296875 27.52734375  C 22.965494791666668 28.509114583333332  21.985677083333336 29  20.83984375 29  L 4.16015625 29  C 3.0143229166666665 29  2.0345052083333335 28.509114583333332  1.2207031250000002 27.52734375  C 0.4069010416666668 26.545572916666668  0 25.368706597222225  0 23.996744791666668  C 0 22.926866319444443  0.055338541666666796 21.916775173611107  0.16601562500000014 20.966471354166664  C 0.2766927083333335 20.016167534722218  0.4817708333333334 19.0595703125  0.7812500000000002 18.0966796875  C 1.080729166666667 17.1337890625  1.461588541666667 16.30935329861111  1.923828125 15.623372395833336  C 2.386067708333334 14.937391493055554  2.998046875 14.377278645833332  3.759765625 13.943033854166668  C 4.521484375 13.5087890625  5.397135416666667 13.291666666666668  6.386718750000001 13.291666666666668  C 8.092447916666668 14.902777777777777  10.130208333333336 15.708333333333336  12.5 15.708333333333336  C 14.869791666666671 15.708333333333336  16.907552083333336 14.902777777777777  18.61328125 13.291666666666668  C 19.602864583333336 13.291666666666668  20.478515625 13.5087890625  21.240234375 13.943033854166668  C 22.001953125 14.377278645833332  22.613932291666668 14.937391493055554  23.076171875 15.623372395833336  C 23.538411458333336 16.30935329861111  23.919270833333332 17.1337890625  24.21875 18.0966796875  C 24.518229166666668 19.0595703125  24.723307291666668 20.016167534722218  24.833984375 20.966471354166664  Z M 17.802734375 2.1240234375  C 19.267578125 3.5400390625  20 5.248697916666668  20 7.25  C 20 9.251302083333332  19.267578125 10.9599609375  17.802734375 12.3759765625  C 16.337890625 13.7919921875  14.570312499999998 14.5  12.5 14.5  C 10.4296875 14.5  8.662109375 13.7919921875  7.197265625 12.3759765625  C 5.732421875 10.9599609375  5 9.251302083333332  5 7.25  C 5 5.248697916666668  5.732421875 3.5400390625  7.197265625 2.1240234375  C 8.662109375 0.7080078125  10.4296875 0  12.5 0  C 14.570312499999998 0  16.337890625 0.7080078125  17.802734375 2.1240234375  Z " fill-rule="nonzero" fill="#ffffff" stroke="none" transform="matrix(1 0 0 1 25 10468 )" />
  </g>
</svg>