<?xml version="1.0" encoding="utf-8"?>
<svg version="1.1" xmlns:xlink="http://www.w3.org/1999/xlink" width="20px" height="19px" xmlns="http://www.w3.org/2000/svg">
  <g transform="matrix(1 0 0 1 -1750 -88 )">
    <path d="M 16.473214285714285 10.192708333333332  C 17.87202380952381 8.64236111111111  18.571428571428573 7.174479166666666  18.571428571428573 5.7890625  C 18.571428571428573 5.12109375  18.491443452380953 4.5314670138888875  18.331473214285715 4.020182291666666  C 18.171502976190478 3.508897569444442  17.966889880952383 3.102756076388888  17.717633928571427 2.8017578125  C 17.468377976190478 2.50075954861111  17.165178571428573 2.255425347222222  16.808035714285715 2.065755208333334  C 16.450892857142858 1.876085069444442  16.101190476190478 1.748263888888888  15.758928571428573 1.682291666666666  C 15.416666666666668 1.616319444444442  15.052083333333336 1.583333333333334  14.665178571428573 1.583333333333334  C 14.278273809523812 1.583333333333334  13.861607142857142 1.6884765625  13.415178571428573 1.898763020833334  C 12.96875 2.109049479166666  12.55766369047619 2.372938368055554  12.181919642857142 2.6904296875  C 11.806175595238098 3.007921006944442  11.484375 3.304796006944442  11.216517857142858 3.5810546875  C 10.948660714285715 3.857313368055554  10.72544642857143 4.110894097222222  10.546875 4.341796875  C 10.41294642857143 4.52322048611111  10.230654761904763 4.613932291666666  10 4.613932291666666  C 9.769345238095239 4.613932291666666  9.587053571428571 4.52322048611111  9.453125 4.341796875  C 9.274553571428571 4.110894097222222  9.051339285714286 3.857313368055554  8.783482142857142 3.5810546875  C 8.515625 3.304796006944442  8.193824404761905 3.007921006944442  7.818080357142857 2.6904296875  C 7.44233630952381 2.372938368055554  7.03125 2.109049479166666  6.584821428571429 1.898763020833334  C 6.138392857142857 1.6884765625  5.721726190476192 1.583333333333334  5.334821428571429 1.583333333333334  C 4.947916666666667 1.583333333333334  4.583333333333334 1.616319444444442  4.241071428571429 1.682291666666666  C 3.8988095238095246 1.748263888888888  3.5491071428571432 1.876085069444442  3.1919642857142856 2.065755208333334  C 2.8348214285714284 2.255425347222222  2.5316220238095237 2.50075954861111  2.2823660714285716 2.8017578125  C 2.033110119047619 3.102756076388888  1.8284970238095237 3.508897569444442  1.6685267857142858 4.020182291666666  C 1.508556547619048 4.5314670138888875  1.4285714285714284 5.12109375  1.4285714285714284 5.7890625  C 1.4285714285714284 7.174479166666666  2.1242559523809526 8.638237847222221  3.515625 10.180338541666668  L 10 17.107421875  L 16.473214285714285 10.192708333333332  Z M 18.582589285714285 1.533854166666666  C 19.527529761904763 2.55642361111111  20 3.974826388888888  20 5.7890625  C 20 7.6115451388888875  19.148065476190478 9.467013888888888  17.444196428571427 11.35546875  L 10.491071428571427 18.77734375  C 10.357142857142858 18.92578125  10.193452380952381 19  10 19  C 9.80654761904762 19  9.642857142857144 18.92578125  9.508928571428571 18.77734375  L 2.5446428571428568 11.330729166666668  C 2.4702380952380953 11.264756944444445  2.367931547619048 11.157552083333332  2.2377232142857144 11.009114583333332  C 2.107514880952381 10.860677083333332  1.901041666666667 10.590603298611112  1.6183035714285716 10.198893229166668  C 1.3355654761904763 9.80718315972222  1.0825892857142858 9.405164930555554  0.859375 8.992838541666666  C 0.6361607142857142 8.580512152777779  0.4371279761904762 8.081597222222221  0.2622767857142857 7.49609375  C 0.08742559523809523 6.910590277777776  0 6.34157986111111  0 5.7890625  C 0 3.974826388888888  0.472470238095238 2.55642361111111  1.4174107142857142 1.533854166666666  C 2.3623511904761907 0.511284722222222  3.668154761904762 0  5.334821428571429 0  C 5.7961309523809526 0  6.266741071428571 0.08865017361110994  6.7466517857142865 0.26595052083333404  C 7.2265625 0.4432508680555539  7.672991071428571 0.6824001736111099  8.0859375 0.9833984375  C 8.49888392857143 1.284396701388888  8.854166666666668 1.566840277777776  9.151785714285714 1.830729166666666  C 9.449404761904763 2.094618055555554  9.732142857142858 2.375  10 2.671875  C 10.267857142857142 2.375  10.550595238095239 2.094618055555554  10.848214285714286 1.830729166666666  C 11.145833333333336 1.566840277777776  11.501116071428573 1.284396701388888  11.9140625 0.9833984375  C 12.327008928571427 0.6824001736111099  12.7734375 0.4432508680555539  13.253348214285714 0.26595052083333404  C 13.733258928571427 0.08865017361110994  14.20386904761905 0  14.665178571428573 0  C 16.33184523809524 0  17.63764880952381 0.511284722222222  18.582589285714285 1.533854166666666  Z " fill-rule="nonzero" fill="#fff6f6" stroke="none" transform="matrix(1 0 0 1 1750 88 )" />
  </g>
</svg>