<?xml version="1.0" encoding="utf-8"?>
<svg version="1.1" xmlns:xlink="http://www.w3.org/1999/xlink" width="17px" height="21px" xmlns="http://www.w3.org/2000/svg">
  <g transform="matrix(1 0 0 1 -1793 -86 )">
    <path d="M 14.166666666666668 6  C 14.166666666666668 7.1484375  13.87521701388889 8.210937499999998  13.292317708333332 9.1875  C 13.639105902777779 9.296874999999998  13.969292534722223 9.4453125  14.282877604166668 9.632812499999998  C 14.596462673611112 9.8203125  14.9248046875 10.105468749999998  15.267903645833332 10.48828125  C 15.611002604166668 10.87109375  15.904296875 11.322265625  16.147786458333332 11.841796875  C 16.391276041666668 12.361328124999998  16.59418402777778 13.033203124999998  16.756510416666668 13.857421875000002  C 16.918836805555554 14.681640625  17 15.60546875  17 16.62890625  C 17 17.832031250000004  16.63107638888889 18.861328125  15.893229166666668 19.716796875  C 15.155381944444446 20.572265625  14.266276041666668 21  13.225911458333332 21  L 3.774088541666667 21  C 2.733723958333333 21  1.8446180555555558 20.572265625  1.1067708333333335 19.716796875  C 0.36892361111111105 18.861328125  0 17.832031250000004  0 16.62890625  C 0 15.60546875  0.08116319444444443 14.681640625  0.24348958333333331 13.857421875000002  C 0.40581597222222227 13.033203124999998  0.6087239583333333 12.361328124999998  0.8522135416666667 11.841796875  C 1.095703125 11.322265625  1.3889973958333335 10.87109375  1.7320963541666665 10.48828125  C 2.0751953125 10.105468749999998  2.4035373263888893 9.8203125  2.717122395833333 9.632812499999998  C 3.030707465277778 9.4453125  3.3608940972222223 9.296874999999998  3.707682291666667 9.1875  C 3.1247829861111116 8.210937499999998  2.833333333333333 7.1484375  2.833333333333333 6  C 2.833333333333333 5.187499999999998  2.982747395833333 4.412109374999999  3.281575520833333 3.673828124999999  C 3.580403645833333 2.935546874999999  3.984375 2.296875  4.493489583333334 1.7578124999999991  C 5.002604166666666 1.2187500000000004  5.605794270833334 0.7910156249999997  6.303059895833334 0.47460937499999933  C 7.000325520833334 0.158203124999999  7.732638888888889 0  8.5 0  C 9.267361111111112 0  9.999674479166668 0.158203124999999  10.696940104166668 0.47460937499999933  C 11.394205729166668 0.7910156249999997  11.997395833333332 1.2187500000000004  12.506510416666668 1.7578124999999991  C 13.015625 2.296875  13.419596354166668 2.935546874999999  13.718424479166668 3.673828124999999  C 14.017252604166668 4.412109374999999  14.166666666666668 5.187499999999998  14.166666666666668 6  Z M 11.5048828125 2.8183593750000004  C 10.674804687500002 1.9394531249999996  9.673177083333334 1.4999999999999993  8.5 1.4999999999999993  C 7.326822916666666 1.4999999999999993  6.3251953125 1.9394531249999996  5.4951171875 2.8183593750000004  C 4.6650390625 3.697265625000001  4.25 4.7578125  4.25 6  C 4.25 7.242187499999999  4.6650390625 8.302734375  5.4951171875 9.181640624999998  C 6.3251953125 10.060546875  7.326822916666666 10.5  8.5 10.5  C 9.673177083333334 10.5  10.674804687500002 10.060546875  11.5048828125 9.181640624999998  C 12.3349609375 8.302734375  12.75 7.242187499999999  12.75 6  C 12.75 4.7578125  12.3349609375 3.697265625000001  11.5048828125 2.8183593750000004  Z M 3.774088541666667 19.5  L 13.225911458333332 19.5  C 13.87521701388889 19.5  14.430447048611112 19.220703125  14.8916015625 18.662109375  C 15.35275607638889 18.103515625  15.583333333333332 17.42578125  15.583333333333332 16.62890625  C 15.583333333333332 14.761718749999998  15.293728298611112 13.2890625  14.714518229166668 12.2109375  C 14.135308159722223 11.1328125  13.303385416666668 10.566406249999998  12.21875 10.51171875  C 11.148871527777777 11.50390625  9.909288194444445 12  8.5 12  C 7.090711805555556 12  5.851128472222223 11.50390625  4.78125 10.51171875  C 3.696614583333333 10.566406249999998  2.864691840277778 11.1328125  2.285481770833333 12.2109375  C 1.706271701388889 13.2890625  1.4166666666666665 14.761718749999998  1.4166666666666665 16.62890625  C 1.4166666666666665 17.42578125  1.6472439236111112 18.103515625  2.1083984375 18.662109375  C 2.5695529513888893 19.220703125  3.1247829861111116 19.5  3.774088541666667 19.5  Z " fill-rule="nonzero" fill="#000000" stroke="none" transform="matrix(1 0 0 1 1793 86 )" />
  </g>
</svg>