<?xml version="1.0" encoding="utf-8"?>
<svg version="1.1" xmlns:xlink="http://www.w3.org/1999/xlink" width="16px" height="25px" xmlns="http://www.w3.org/2000/svg">
  <g transform="matrix(1 0 0 1 -1707 -86 )">
    <path d="M 15.368055555555555 4.917689732142858  C 15.789351851851855 5.908203125  16 6.947544642857142  16 8.035714285714285  C 16 10.091145833333332  15.317129629629632 11.879185267857142  13.95138888888889 13.399832589285715  C 12.585648148148149 14.920479910714285  10.898148148148149 15.792410714285715  8.88888888888889 16.015625  L 8.88888888888889 24.553571428571427  C 8.88888888888889 24.683779761904763  8.847222222222221 24.790736607142858  8.76388888888889 24.874441964285715  C 8.680555555555555 24.958147321428573  8.574074074074074 25  8.444444444444445 25  L 7.555555555555555 25  C 7.425925925925927 25  7.319444444444445 24.958147321428573  7.236111111111111 24.874441964285715  C 7.152777777777778 24.790736607142858  7.111111111111111 24.683779761904763  7.111111111111111 24.553571428571427  L 7.111111111111111 16.015625  C 5.101851851851852 15.792410714285715  3.414351851851852 14.920479910714285  2.048611111111111 13.399832589285715  C 0.6828703703703703 11.879185267857142  0 10.091145833333332  0 8.035714285714285  C 0 6.947544642857142  0.21064814814814814 5.908203125  0.6319444444444444 4.917689732142858  C 1.053240740740741 3.9271763392857153  1.6226851851851853 3.0715215773809508  2.3402777777777777 2.3507254464285725  C 3.0578703703703707 1.629929315476189  3.9097222222222223 1.0579427083333315  4.895833333333333 0.634765625  C 5.8819444444444455 0.21158854166666852  6.916666666666668 0  8 0  C 9.083333333333334 0  10.118055555555555 0.21158854166666852  11.104166666666666 0.634765625  C 12.090277777777779 1.0579427083333315  12.942129629629632 1.629929315476189  13.659722222222221 2.3507254464285725  C 14.377314814814817 3.0715215773809508  14.94675925925926 3.9271763392857153  15.368055555555555 4.917689732142858  Z M 3.6041666666666665 12.451171875  C 4.8217592592592595 13.674200148809524  6.287037037037037 14.285714285714285  8 14.285714285714285  C 9.712962962962964 14.285714285714285  11.17824074074074 13.674200148809524  12.395833333333334 12.451171875  C 13.613425925925927 11.228143601190474  14.222222222222221 9.756324404761903  14.222222222222221 8.035714285714285  C 14.222222222222221 6.315104166666666  13.613425925925927 4.843284970238093  12.395833333333334 3.6202566964285725  C 11.17824074074074 2.3972284226190466  9.712962962962964 1.785714285714285  8 1.785714285714285  C 6.287037037037037 1.785714285714285  4.8217592592592595 2.3972284226190466  3.6041666666666665 3.6202566964285725  C 2.3865740740740744 4.843284970238093  1.7777777777777777 6.315104166666666  1.7777777777777777 8.035714285714285  C 1.7777777777777777 9.756324404761903  2.3865740740740744 11.228143601190474  3.6041666666666665 12.451171875  Z " fill-rule="nonzero" fill="#fff6f6" stroke="none" transform="matrix(1 0 0 1 1707 86 )" />
  </g>
</svg>