<?xml version="1.0" encoding="utf-8"?>
<svg version="1.1" xmlns:xlink="http://www.w3.org/1999/xlink" width="19px" height="21px" xmlns="http://www.w3.org/2000/svg">
  <g transform="matrix(1 0 0 1 -1833 -86 )">
    <path d="M 1.4615384615384617 7.499999999999999  L 1.4615384615384617 19.5  L 17.53846153846154 19.5  L 17.53846153846154 7.499999999999999  L 1.4615384615384617 7.499999999999999  Z M 5.743389423076923 5.519531249999999  C 5.811899038461538 5.449218749999999  5.846153846153847 5.359374999999998  5.846153846153847 5.25  L 5.846153846153847 1.8750000000000004  C 5.846153846153847 1.7656249999999973  5.811899038461538 1.6757812499999991  5.743389423076923 1.6054687500000009  C 5.674879807692308 1.5351562500000007  5.587339743589744 1.4999999999999993  5.48076923076923 1.4999999999999993  L 4.75 1.4999999999999993  C 4.643429487179488 1.4999999999999993  4.555889423076923 1.5351562500000007  4.4873798076923075 1.6054687500000009  C 4.4188701923076925 1.6757812499999991  4.384615384615385 1.7656249999999973  4.384615384615385 1.8750000000000004  L 4.384615384615385 5.25  C 4.384615384615385 5.359374999999998  4.4188701923076925 5.449218749999999  4.4873798076923075 5.519531249999999  C 4.555889423076923 5.58984375  4.643429487179488 5.625000000000001  4.75 5.625000000000001  L 5.48076923076923 5.625000000000001  C 5.587339743589744 5.625000000000001  5.674879807692308 5.58984375  5.743389423076923 5.519531249999999  Z M 14.512620192307693 5.519531249999999  C 14.581129807692307 5.449218749999999  14.615384615384617 5.359374999999998  14.615384615384617 5.25  L 14.615384615384617 1.8750000000000004  C 14.615384615384617 1.7656249999999973  14.581129807692307 1.6757812499999991  14.512620192307693 1.6054687500000009  C 14.444110576923077 1.5351562500000007  14.356570512820515 1.4999999999999993  14.25 1.4999999999999993  L 13.51923076923077 1.4999999999999993  C 13.412660256410257 1.4999999999999993  13.325120192307693 1.5351562500000007  13.256610576923077 1.6054687500000009  C 13.18810096153846 1.6757812499999991  13.153846153846153 1.7656249999999973  13.153846153846153 1.8750000000000004  L 13.153846153846153 5.25  C 13.153846153846153 5.359374999999998  13.18810096153846 5.449218749999999  13.256610576923077 5.519531249999999  C 13.325120192307693 5.58984375  13.412660256410257 5.625000000000001  13.51923076923077 5.625000000000001  L 14.25 5.625000000000001  C 14.356570512820515 5.625000000000001  14.444110576923077 5.58984375  14.512620192307693 5.519531249999999  Z M 18.56610576923077 3.4453125  C 18.85536858974359 3.7421875  19 4.093749999999999  19 4.5  L 19 19.5  C 19 19.90625  18.85536858974359 20.2578125  18.56610576923077 20.5546875  C 18.27684294871795 20.8515625  17.934294871794872 21  17.53846153846154 21  L 1.4615384615384617 21  C 1.0657051282051284 21  0.7231570512820513 20.8515625  0.4338942307692307 20.5546875  C 0.14463141025641024 20.2578125  0 19.90625  0 19.5  L 0 4.5  C 0 4.093749999999999  0.14463141025641024 3.7421875  0.4338942307692307 3.4453125  C 0.7231570512820513 3.1484374999999973  1.0657051282051284 3.000000000000001  1.4615384615384617 3.000000000000001  L 2.9230769230769234 3.000000000000001  L 2.9230769230769234 1.8750000000000004  C 2.9230769230769234 1.3593750000000009  3.101963141025641 0.9179687499999988  3.4597355769230766 0.5507812500000007  C 3.8175080128205137 0.18359375000000022  4.247596153846154 0  4.75 0  L 5.48076923076923 0  C 5.983173076923077 0  6.413261217948719 0.18359375000000022  6.771033653846153 0.5507812500000007  C 7.12880608974359 0.9179687499999988  7.307692307692308 1.3593750000000009  7.307692307692308 1.8750000000000004  L 7.307692307692308 3.000000000000001  L 11.692307692307693 3.000000000000001  L 11.692307692307693 1.8750000000000004  C 11.692307692307693 1.3593750000000009  11.87119391025641 0.9179687499999988  12.228966346153847 0.5507812500000007  C 12.586738782051285 0.18359375000000022  13.016826923076923 0  13.51923076923077 0  L 14.25 0  C 14.752403846153847 0  15.182491987179487 0.18359375000000022  15.540264423076923 0.5507812500000007  C 15.898036858974361 0.9179687499999988  16.076923076923077 1.3593750000000009  16.076923076923077 1.8750000000000004  L 16.076923076923077 3.000000000000001  L 17.53846153846154 3.000000000000001  C 17.934294871794872 3.000000000000001  18.27684294871795 3.1484374999999973  18.56610576923077 3.4453125  Z " fill-rule="nonzero" fill="#ffffff" stroke="none" transform="matrix(1 0 0 1 1833 86 )" />
  </g>
</svg>